<svg width="164" height="49" viewBox="0 0 164 49" fill="none" xmlns="http://www.w3.org/2000/svg">
<path d="M163.858 22.0507V19.1543H160.279V14.6516L160.159 14.6888L156.798 15.7225L156.731 15.7427V19.1545H151.426V17.2538C151.426 16.3688 151.623 15.6916 152.011 15.2399C152.396 14.7937 152.948 14.5668 153.65 14.5668C154.156 14.5668 154.679 14.6865 155.206 14.9224L155.338 14.9817V11.9314L155.276 11.9085C154.784 11.731 154.116 11.6416 153.288 11.6416C152.244 11.6416 151.296 11.8699 150.469 12.3224C149.641 12.7755 148.99 13.4223 148.534 14.2447C148.08 15.0661 147.849 16.0148 147.849 17.0647V19.1543H145.357V22.0507H147.849V34.2526H151.426V22.0507H156.731V29.8048C156.731 32.9983 158.23 34.6166 161.186 34.6166C161.671 34.6166 162.183 34.5594 162.704 34.4474C163.236 34.3324 163.598 34.2175 163.811 34.0949L163.858 34.0668V31.1437L163.712 31.2404C163.518 31.3704 163.276 31.4767 162.993 31.5557C162.708 31.6361 162.471 31.6764 162.286 31.6764C161.594 31.6764 161.082 31.4889 160.764 31.1188C160.442 30.7454 160.279 30.0924 160.279 29.1788V22.0507H163.858ZM137.369 31.6769C136.071 31.6769 135.047 31.2442 134.326 30.3919C133.6 29.5352 133.232 28.3139 133.232 26.7622C133.232 25.1612 133.6 23.9082 134.326 23.0364C135.048 22.1703 136.062 21.7308 137.34 21.7308C138.58 21.7308 139.568 22.1506 140.275 22.9792C140.986 23.8121 141.346 25.0551 141.346 26.6747C141.346 28.3142 141.007 29.5736 140.338 30.4161C139.674 31.2522 138.675 31.6769 137.369 31.6769V31.6769ZM137.528 18.7906C135.051 18.7906 133.084 19.5201 131.681 20.9589C130.279 22.3979 129.568 24.3891 129.568 26.878C129.568 29.2419 130.262 31.1434 131.631 32.5286C132.999 33.9144 134.862 34.6163 137.166 34.6163C139.567 34.6163 141.495 33.8766 142.897 32.4179C144.299 30.9608 145.01 28.9883 145.01 26.5576C145.01 24.1567 144.343 22.2411 143.028 20.8651C141.712 19.4884 139.862 18.7906 137.528 18.7906V18.7906ZM123.801 18.7906C122.116 18.7906 120.722 19.2238 119.658 20.0779C118.586 20.9371 118.043 22.0639 118.043 23.4275C118.043 24.1363 118.16 24.7659 118.391 25.3C118.623 25.8357 118.983 26.3075 119.46 26.7034C119.934 27.0961 120.665 27.5074 121.634 27.926C122.449 28.2629 123.057 28.5479 123.443 28.7726C123.82 28.9928 124.088 29.214 124.239 29.4296C124.386 29.6405 124.46 29.9292 124.46 30.2855C124.46 31.2998 123.704 31.7934 122.149 31.7934C121.572 31.7934 120.915 31.6723 120.194 31.4336C119.478 31.1986 118.803 30.8544 118.191 30.4131L118.043 30.306V33.7675L118.097 33.793C118.603 34.0278 119.241 34.2258 119.994 34.3816C120.744 34.5376 121.426 34.6169 122.019 34.6169C123.847 34.6169 125.32 34.1817 126.394 33.3225C127.475 32.4574 128.023 31.304 128.023 29.8932C128.023 28.8755 127.728 28.0028 127.147 27.2989C126.569 26.6008 125.567 25.9598 124.169 25.3933C123.055 24.944 122.342 24.5711 122.048 24.2848C121.764 24.0082 121.62 23.6171 121.62 23.1218C121.62 22.6827 121.798 22.3309 122.163 22.0461C122.531 21.7598 123.043 21.6142 123.685 21.6142C124.281 21.6142 124.891 21.7088 125.497 21.8943C126.103 22.0797 126.636 22.3281 127.08 22.6319L127.226 22.7323V19.4487L127.17 19.4245C126.76 19.2478 126.219 19.0967 125.563 18.974C124.909 18.8521 124.317 18.7906 123.801 18.7906V18.7906ZM108.718 31.6769C107.42 31.6769 106.396 31.2442 105.675 30.3919C104.949 29.5352 104.581 28.3142 104.581 26.7622C104.581 25.1612 104.949 23.9082 105.675 23.0364C106.397 22.1703 107.41 21.7308 108.689 21.7308C109.929 21.7308 110.916 22.1506 111.624 22.9792C112.335 23.8121 112.695 25.0551 112.695 26.6747C112.695 28.3142 112.356 29.5736 111.687 30.4161C111.023 31.2522 110.024 31.6769 108.718 31.6769V31.6769ZM108.877 18.7906C106.4 18.7906 104.432 19.5201 103.03 20.9589C101.628 22.3979 100.917 24.3891 100.917 26.878C100.917 29.2429 101.611 31.1434 102.98 32.5286C104.348 33.9144 106.211 34.6163 108.515 34.6163C110.916 34.6163 112.844 33.8766 114.247 32.4179C115.648 30.9608 116.359 28.9883 116.359 26.5576C116.359 24.1567 115.692 22.2411 114.377 20.8651C113.061 19.4884 111.21 18.7906 108.877 18.7906V18.7906ZM95.4871 21.769V19.1543H91.9536V34.2523H95.4871V26.5291C95.4871 25.2158 95.7833 24.137 96.3679 23.322C96.945 22.5169 97.7141 22.1089 98.6531 22.1089C98.9714 22.1089 99.3287 22.1616 99.7156 22.2659C100.099 22.3697 100.376 22.4823 100.54 22.6008L100.688 22.709V19.1285L100.631 19.1038C100.302 18.9633 99.8362 18.8924 99.2472 18.8924C98.3592 18.8924 97.5646 19.1792 96.884 19.7438C96.2866 20.2401 95.8548 20.9205 95.5246 21.769H95.4871ZM85.6258 18.7906C84.0047 18.7906 82.5588 19.14 81.3289 19.8287C80.0965 20.519 79.1434 21.5046 78.4949 22.7577C77.8493 24.0079 77.5215 25.4682 77.5215 27.0967C77.5215 28.5233 77.8393 29.8324 78.4675 30.9861C79.096 32.1418 79.9856 33.0459 81.1116 33.673C82.2361 34.2993 83.5357 34.6168 84.9746 34.6168C86.6538 34.6168 88.0876 34.2794 89.2371 33.6139L89.2835 33.5871V30.3334L89.135 30.4424C88.6143 30.8236 88.0324 31.1279 87.4063 31.3471C86.7818 31.5662 86.2124 31.6769 85.7131 31.6769C84.3266 31.6769 83.2136 31.2409 82.4057 30.3812C81.596 29.5204 81.1855 28.3117 81.1855 26.7907C81.1855 25.2601 81.6136 24.0203 82.4573 23.1055C83.2985 22.1934 84.4136 21.7308 85.7714 21.7308C86.9328 21.7308 88.0646 22.1261 89.1353 22.9067L89.2835 23.0149V19.5866L89.2356 19.5595C88.8327 19.3328 88.2832 19.1456 87.6009 19.0036C86.9216 18.862 86.2571 18.7906 85.6258 18.7906V18.7906ZM75.088 19.1545H71.5545V34.2523H75.088V19.1545V19.1545ZM73.3574 12.7227C72.7758 12.7227 72.2686 12.9217 71.8518 13.316C71.4334 13.7114 71.2211 14.2093 71.2211 14.7969C71.2211 15.3752 71.4308 15.864 71.8453 16.2489C72.2571 16.6327 72.766 16.8272 73.3575 16.8272C73.9489 16.8272 74.4596 16.6327 74.8763 16.2495C75.2958 15.864 75.5085 15.3753 75.5085 14.7969C75.5085 14.2299 75.3015 13.7371 74.8936 13.3319C74.4861 12.9276 73.969 12.7227 73.3574 12.7227ZM64.5411 18.0405V34.2523H68.1472V13.1849H63.1562L56.8124 28.8331L50.6561 13.1849H45.4619V34.2521H48.8507V18.039H48.967L55.4679 34.2523H58.0253L64.4248 18.0405H64.5411V18.0405Z" fill="white"/>
<path d="M16.6225 22.8517H0V6.14453H16.6225V22.8517Z" fill="#F1511B"/>
<path d="M34.9757 22.8517H18.3535V6.14453H34.9757V22.8517Z" fill="#80CC28"/>
<path d="M16.622 41.3057H0V24.5986H16.622V41.3057Z" fill="#00ADEF"/>
<path d="M34.9757 41.3057H18.3535V24.5986H34.9757V41.3057Z" fill="#FBBC09"/>
</svg>
