<svg width="45" height="45" viewBox="0 0 45 45" fill="none" xmlns="http://www.w3.org/2000/svg">
<g filter="url(#filter0_i_3003_13168)">
<path d="M42.1664 12.3828C41.7082 10.6603 40.3528 9.30144 38.6284 8.83573C35.5103 8 23 8 23 8C23 8 10.496 8 7.37162 8.83573C5.65352 9.29506 4.29812 10.6539 3.8336 12.3828C3 15.5088 3 22.0351 3 22.0351C3 22.0351 3 28.5614 3.8336 31.6874C4.29176 33.4099 5.64715 34.7687 7.37162 35.2344C10.496 36.0702 23 36.0702 23 36.0702C23 36.0702 35.5103 36.0702 38.6284 35.2344C40.3465 34.7751 41.7019 33.4163 42.1664 31.6874C43 28.5614 43 22.0351 43 22.0351C43 22.0351 43 15.5088 42.1664 12.3828Z" fill="white"/>
<path d="M19.0038 28.051L29.3952 22.0351L19.0038 16.0191V28.051Z" fill="#FF0000"/>
</g>
<defs>
<filter id="filter0_i_3003_13168" x="0" y="0" width="45" height="45.5" filterUnits="userSpaceOnUse" color-interpolation-filters="sRGB">
<feFlood flood-opacity="0" result="BackgroundImageFix"/>
<feBlend mode="normal" in="SourceGraphic" in2="BackgroundImageFix" result="shape"/>
<feColorMatrix in="SourceAlpha" type="matrix" values="0 0 0 0 0 0 0 0 0 0 0 0 0 0 0 0 0 0 127 0" result="hardAlpha"/>
<feOffset dy="0.5"/>
<feGaussianBlur stdDeviation="1.25"/>
<feComposite in2="hardAlpha" operator="arithmetic" k2="-1" k3="1"/>
<feColorMatrix type="matrix" values="0 0 0 0 0 0 0 0 0 0 0 0 0 0 0 0 0 0 0.1 0"/>
<feBlend mode="normal" in2="shape" result="effect1_innerShadow_3003_13168"/>
</filter>
</defs>
</svg>
