<svg width="45" height="45" viewBox="0 0 45 45" fill="none" xmlns="http://www.w3.org/2000/svg">
<path d="M0 45L3.22578 33.0058C0.624269 28.3334 -0.202257 22.8812 0.897871 17.6495C1.998 12.4179 4.95099 7.75778 9.21495 4.52434C13.4789 1.2909 18.7679 -0.298978 24.1112 0.0464506C29.4546 0.391879 34.494 2.64944 38.3046 6.40488C42.1153 10.1603 44.4416 15.1617 44.8567 20.4913C45.2719 25.8209 43.7479 31.1212 40.5646 35.4196C37.3812 39.718 32.7519 42.7261 27.5263 43.892C22.3006 45.0579 16.8291 44.3034 12.1157 41.7669L0 45ZM12.6999 37.2786L13.4492 37.7223C16.8632 39.7425 20.8507 40.5785 24.7903 40.1C28.7299 39.6215 32.4003 37.8554 35.2296 35.0769C38.0588 32.2985 39.8879 28.6637 40.4319 24.739C40.9759 20.8143 40.2041 16.8202 38.237 13.3791C36.2698 9.93802 33.2177 7.24324 29.5563 5.7147C25.8948 4.18617 21.8298 3.90974 17.9946 4.9285C14.1594 5.94727 10.7694 8.20399 8.35304 11.347C5.93667 14.49 4.62958 18.3427 4.63547 22.3048C4.63226 25.59 5.54232 28.8116 7.26435 31.6111L7.73425 32.3845L5.93086 39.079L12.6999 37.2786Z" fill="white"/>
<path fill-rule="evenodd" clip-rule="evenodd" d="M30.8862 25.384C30.447 25.0303 29.9327 24.7814 29.3825 24.6562C28.8323 24.5309 28.2607 24.5327 27.7113 24.6613C26.8858 25.0037 26.3524 26.2969 25.819 26.9435C25.7065 27.0986 25.5412 27.2073 25.3542 27.2493C25.1671 27.2913 24.9711 27.2637 24.803 27.1718C21.7808 25.99 19.2476 23.823 17.6148 21.0225C17.4756 20.8477 17.4097 20.6259 17.431 20.4036C17.4523 20.1813 17.5592 19.9759 17.7291 19.8307C18.324 19.2427 18.7608 18.5145 18.9991 17.7133C19.052 16.8296 18.8492 15.9494 18.4149 15.1775C18.0792 14.0955 17.4402 13.132 16.5734 12.4009C16.1264 12.2001 15.6307 12.1328 15.1462 12.2071C14.6617 12.2813 14.2091 12.4939 13.843 12.8193C13.2073 13.3668 12.7027 14.0497 12.3664 14.8177C12.0302 15.5857 11.8707 16.4192 11.8999 17.2569C11.9018 17.7273 11.9615 18.1957 12.0777 18.6516C12.3726 19.7469 12.8261 20.7934 13.4239 21.7579C13.8551 22.4967 14.3257 23.212 14.8335 23.9006C16.484 26.1625 18.5586 28.083 20.9422 29.5554C22.1383 30.3036 23.4167 30.912 24.7522 31.3685C26.1394 31.9963 27.6711 32.2372 29.1845 32.0658C30.0467 31.9355 30.8637 31.5956 31.5635 31.0761C32.2633 30.5565 32.8245 29.8732 33.1976 29.0863C33.4169 28.6109 33.4834 28.0794 33.3881 27.5648C33.1595 26.5125 31.7498 25.8912 30.8862 25.384Z" fill="white"/>
</svg>
