<svg width="39" height="37" viewBox="0 0 39 37" fill="none" xmlns="http://www.w3.org/2000/svg">
<path d="M8.69787 36.6564V11.9229H0.484144V36.6564H8.69873H8.69787ZM4.59272 8.54658C7.45642 8.54658 9.23927 6.64734 9.23927 4.27383C9.18566 1.84623 7.45642 0 4.64718 0C1.83602 0 0 1.84623 0 4.27361C0 6.64713 1.7822 8.54637 4.53891 8.54637H4.59208L4.59272 8.54658ZM13.2443 36.6564H21.4574V22.8456C21.4574 22.1074 21.511 21.3672 21.728 20.8399C22.3215 19.3624 23.6729 17.8329 25.9425 17.8329C28.9138 17.8329 30.1031 20.1008 30.1031 23.4261V36.6564H38.316V22.475C38.316 14.8782 34.2645 11.3431 28.8606 11.3431C24.4302 11.3431 22.4844 13.8215 21.4033 15.5096H21.458V11.9238H13.2447C13.3519 14.2441 13.2441 36.6573 13.2441 36.6573L13.2443 36.6564Z" fill="white"/>
</svg>
