<svg width="24" height="288" viewBox="0 0 24 288" fill="none" xmlns="http://www.w3.org/2000/svg">
<path d="M24 10.5222C24 4.7398 18.624 0.046875 12 0.046875C5.376 0.046875 0 4.7398 0 10.5222C0 15.5922 4.128 19.8137 9.6 20.7879V13.6647H7.2V10.5222H9.6V7.90334C9.6 5.88161 11.484 4.23699 13.8 4.23699H16.8V7.37957H14.4C13.74 7.37957 13.2 7.85096 13.2 8.4271V10.5222H16.8V13.6647H13.2V20.9451C19.26 20.4213 24 15.9588 24 10.5222Z" fill="#FF5001"/>
<path d="M13.2336 68.8369C14.5835 68.84 15.2687 68.8463 15.8603 68.8609L16.0931 68.8683C16.3619 68.8766 16.627 68.8871 16.9474 68.8996C18.2242 68.9519 19.0953 69.1274 19.8597 69.3855C20.6516 69.6509 21.3188 70.0103 21.986 70.5902C22.5964 71.1124 23.0685 71.7443 23.3695 72.4418C23.6659 73.1074 23.8675 73.8659 23.9275 74.9787C23.9419 75.2567 23.9539 75.4876 23.9635 75.7227L23.9707 75.9254C23.9887 76.4395 23.9959 77.0361 23.9983 78.2116L23.9995 78.9911V80.3599C24.0024 81.122 23.9932 81.8842 23.9719 82.6461L23.9647 82.8488C23.9551 83.0839 23.9431 83.3148 23.9287 83.5928C23.8687 84.7056 23.6647 85.4631 23.3695 86.1297C23.0685 86.8272 22.5964 87.4591 21.986 87.9813C21.3863 88.5128 20.6607 88.924 19.8597 89.186C19.0953 89.4441 18.2242 89.6197 16.9474 89.6719L16.0931 89.7033L15.8603 89.7095C15.2687 89.7242 14.5835 89.7315 13.2336 89.7336L12.3385 89.7346H10.7677C9.8921 89.7373 9.01646 89.7293 8.14107 89.7106L7.90828 89.7043C7.62343 89.6949 7.33864 89.6841 7.05393 89.6719C5.77719 89.6197 4.90604 89.4441 4.14047 89.186C3.33991 88.9238 2.61468 88.5127 2.01538 87.9813C1.40455 87.4592 0.931966 86.8273 0.630651 86.1297C0.334266 85.4642 0.132676 84.7056 0.0726788 83.5928L0.0366807 82.8488L0.0306811 82.6461C0.00856149 81.8842 -0.00143908 81.1221 0.000682522 80.3599V78.2116C-0.00263878 77.4495 0.00616171 76.6873 0.0270813 75.9254L0.0354808 75.7227C0.0450803 75.4876 0.0570797 75.2567 0.071479 74.9787C0.131476 73.8659 0.333066 73.1084 0.629451 72.4418C0.931469 71.744 1.40488 71.1121 2.01658 70.5902C2.61553 70.059 3.34034 69.6478 4.14047 69.3855C4.90604 69.1274 5.77599 68.9519 7.05393 68.8996C7.37311 68.8871 7.6395 68.8766 7.90828 68.8683L8.14107 68.862C9.01606 68.8434 9.8913 68.8354 10.7665 68.838L13.2336 68.8369ZM12.0001 74.0613C10.4089 74.0613 8.88281 74.6118 7.75765 75.5915C6.63249 76.5713 6.00038 77.9002 6.00038 79.2858C6.00038 80.6714 6.63249 82.0002 7.75765 82.98C8.88281 83.9598 10.4089 84.5102 12.0001 84.5102C13.5913 84.5102 15.1173 83.9598 16.2425 82.98C17.3677 82.0002 17.9998 80.6714 17.9998 79.2858C17.9998 77.9002 17.3677 76.5713 16.2425 75.5915C15.1173 74.6118 13.5913 74.0613 12.0001 74.0613ZM12.0001 76.1511C12.4728 76.151 12.9409 76.232 13.3777 76.3895C13.8145 76.547 14.2114 76.7778 14.5457 77.0689C14.88 77.3599 15.1453 77.7054 15.3262 78.0857C15.5072 78.466 15.6004 78.8736 15.6005 79.2852C15.6006 79.6969 15.5075 80.1045 15.3267 80.4849C15.1459 80.8652 14.8808 81.2108 14.5466 81.5019C14.2123 81.7931 13.8155 82.024 13.3788 82.1816C12.9421 82.3392 12.474 82.4203 12.0013 82.4204C11.0465 82.4204 10.1309 82.0902 9.45582 81.5023C8.78072 80.9144 8.40146 80.1171 8.40146 79.2858C8.40146 78.4544 8.78072 77.6571 9.45582 77.0692C10.1309 76.4814 11.0465 76.1511 12.0013 76.1511M18.301 72.494C17.9032 72.494 17.5216 72.6316 17.2404 72.8766C16.9591 73.1215 16.801 73.4537 16.801 73.8001C16.801 74.1465 16.9591 74.4787 17.2404 74.7237C17.5216 74.9686 17.9032 75.1062 18.301 75.1062C18.6988 75.1062 19.0803 74.9686 19.3616 74.7237C19.6429 74.4787 19.8009 74.1465 19.8009 73.8001C19.8009 73.4537 19.6429 73.1215 19.3616 72.8766C19.0803 72.6316 18.6988 72.494 18.301 72.494Z" fill="#FF5001"/>
<path d="M9.6 147.578L15.828 144.593L9.6 141.608V147.578ZM23.472 139.786C23.628 140.254 23.736 140.881 23.808 141.677C23.892 142.473 23.928 143.16 23.928 143.757L24 144.593C24 146.772 23.808 148.375 23.472 149.4C23.172 150.295 22.476 150.872 21.396 151.121C20.832 151.251 19.8 151.34 18.216 151.4C16.656 151.47 15.228 151.499 13.908 151.499L12 151.559C6.972 151.559 3.84 151.4 2.604 151.121C1.524 150.872 0.828 150.295 0.528 149.4C0.372 148.932 0.264 148.305 0.192 147.509C0.108 146.713 0.0719999 146.026 0.0719999 145.429L0 144.593C0 142.414 0.192 140.811 0.528 139.786C0.828 138.891 1.524 138.314 2.604 138.065C3.168 137.935 4.2 137.846 5.784 137.786C7.344 137.717 8.772 137.687 10.092 137.687L12 137.627C17.028 137.627 20.16 137.786 21.396 138.065C22.476 138.314 23.172 138.891 23.472 139.786Z" fill="#FF5001"/>
<path d="M21.3333 199.45C22.0406 199.45 22.7189 199.695 23.219 200.13C23.719 200.566 24 201.156 24 201.772V218.026C24 218.642 23.719 219.233 23.219 219.668C22.7189 220.104 22.0406 220.348 21.3333 220.348H2.66667C1.95942 220.348 1.28115 220.104 0.781048 219.668C0.280951 219.233 0 218.642 0 218.026V201.772C0 201.156 0.280951 200.566 0.781048 200.13C1.28115 199.695 1.95942 199.45 2.66667 199.45H21.3333ZM20.6667 217.446V211.293C20.6667 210.289 20.2087 209.326 19.3936 208.616C18.5784 207.906 17.4728 207.508 16.32 207.508C15.1867 207.508 13.8667 208.111 13.2267 209.017V207.728H9.50667V217.446H13.2267V211.722C13.2267 210.828 14.0533 210.097 15.08 210.097C15.5751 210.097 16.0499 210.268 16.3999 210.573C16.75 210.878 16.9467 211.291 16.9467 211.722V217.446H20.6667ZM5.17333 205.905C5.76742 205.905 6.33717 205.7 6.75725 205.334C7.17733 204.968 7.41333 204.472 7.41333 203.955C7.41333 202.875 6.41333 201.993 5.17333 201.993C4.57571 201.993 4.00257 202.2 3.57999 202.567C3.1574 202.935 2.92 203.435 2.92 203.955C2.92 205.035 3.93333 205.905 5.17333 205.905ZM7.02667 217.446V207.728H3.33333V217.446H7.02667Z" fill="#FF5001"/>
<path fill-rule="evenodd" clip-rule="evenodd" d="M12 268.24C5.3724 268.24 0 272.529 0 277.82C0 279.631 0.63 281.327 1.7256 282.771L0.6552 285.676C0.593742 285.843 0.589698 286.02 0.643493 286.188C0.697289 286.357 0.806937 286.511 0.960911 286.633C1.11489 286.756 1.3075 286.844 1.5185 286.887C1.7295 286.93 1.9511 286.927 2.16 286.877L5.7984 286.023C7.66889 286.926 9.81389 287.403 12 287.401C18.6276 287.401 24 283.112 24 277.82C24 272.529 18.6276 268.24 12 268.24ZM9.2856 279.988C11.7132 281.926 14.0304 282.181 14.8488 282.205C16.0932 282.242 17.3052 281.483 17.7768 280.602C17.8358 280.493 17.8572 280.373 17.8386 280.254C17.82 280.136 17.7623 280.024 17.6712 279.929C17.0136 279.258 16.1244 278.777 15.2556 278.297C15.0743 278.197 14.8513 278.157 14.6335 278.185C14.4158 278.213 14.2202 278.308 14.088 278.449L13.368 279.325C13.33 279.372 13.271 279.406 13.203 279.42C13.135 279.433 13.0632 279.425 13.002 279.398C12.5136 279.175 11.802 278.796 11.2908 278.388C10.7796 277.979 10.3332 277.437 10.0824 277.072C10.0521 277.026 10.0435 276.972 10.0582 276.921C10.073 276.87 10.11 276.825 10.1628 276.793L11.2716 276.136C11.4303 276.027 11.5328 275.874 11.5593 275.708C11.5859 275.542 11.5347 275.374 11.4156 275.236C10.878 274.607 10.2516 273.808 9.3432 273.278C9.22572 273.211 9.08842 273.169 8.94462 273.156C8.80082 273.144 8.65538 273.161 8.5224 273.207C7.4184 273.584 6.4632 274.552 6.5088 275.547C6.5388 276.2 6.8592 278.05 9.2856 279.988Z" fill="#FF5001"/>
</svg>
