<svg width="16" height="15" viewBox="0 0 16 15" fill="none" xmlns="http://www.w3.org/2000/svg">
<path d="M1.6 14.7442C1.16 14.7442 0.783333 14.5992 0.47 14.3091C0.156667 14.019 0 13.6703 0 13.263V5.11643C0 4.7091 0.156667 4.36041 0.47 4.07034C0.783333 3.78027 1.16 3.63524 1.6 3.63524H4.8V2.15405C4.8 1.74672 4.95667 1.39802 5.27 1.10795C5.58333 0.817885 5.96 0.672852 6.4 0.672852H9.6C10.04 0.672852 10.4167 0.817885 10.73 1.10795C11.0433 1.39802 11.2 1.74672 11.2 2.15405V3.63524H14.4C14.84 3.63524 15.2167 3.78027 15.53 4.07034C15.8433 4.36041 16 4.7091 16 5.11643V13.263C16 13.6703 15.8433 14.019 15.53 14.3091C15.2167 14.5992 14.84 14.7442 14.4 14.7442H1.6ZM6.4 3.63524H9.6V2.15405H6.4V3.63524ZM14.4 10.3006H10.4V11.7818H5.6V10.3006H1.6V13.263H14.4V10.3006ZM7.2 10.3006H8.8V8.81942H7.2V10.3006ZM1.6 8.81942H5.6V7.33822H10.4V8.81942H14.4V5.11643H1.6V8.81942Z" fill="#FF5001"/>
</svg>
