<svg width="30" height="20" viewBox="0 0 30 20" fill="none" xmlns="http://www.w3.org/2000/svg">
<path d="M20.3766 0.204102H16.35C15.975 0.204102 15.6141 0.353241 15.3375 0.621693L10.7297 5.09589C10.725 5.10086 10.7203 5.1108 10.7156 5.11577C9.9375 5.8913 9.95156 7.12916 10.6172 7.89972C11.2125 8.59073 12.4641 8.77467 13.2469 8.03394C13.2516 8.02897 13.2609 8.02897 13.2656 8.024L17.0109 4.38499C17.3156 4.09168 17.7937 4.11157 18.0703 4.4347C18.3516 4.75784 18.3281 5.25994 18.0234 5.55822L16.8 6.74637L23.625 12.6225C23.7609 12.7418 23.8828 12.871 23.9953 13.0053V3.38575L21.4359 0.671406C21.1594 0.373127 20.775 0.204102 20.3766 0.204102ZM25.5 3.39569V14.5265C25.5 15.4064 26.1703 16.1173 27 16.1173H30V3.39569H25.5ZM27.75 14.5265C27.3375 14.5265 27 14.1686 27 13.7311C27 13.2936 27.3375 12.9357 27.75 12.9357C28.1625 12.9357 28.5 13.2936 28.5 13.7311C28.5 14.1686 28.1625 14.5265 27.75 14.5265ZM0 16.1123H3C3.82969 16.1123 4.5 15.4014 4.5 14.5215V3.39569H0V16.1123ZM2.25 12.9357C2.6625 12.9357 3 13.2936 3 13.7311C3 14.1686 2.6625 14.5265 2.25 14.5265C1.8375 14.5265 1.5 14.1686 1.5 13.7311C1.5 13.2886 1.8375 12.9357 2.25 12.9357ZM22.6828 13.8603L15.6844 7.83509L14.2781 9.2022C12.8859 10.5494 10.7531 10.4202 9.51094 8.98347C8.25 7.5219 8.34844 5.25994 9.71719 3.92763L13.5516 0.204102H9.62344C9.225 0.204102 8.84531 0.373127 8.56406 0.671406L6 3.38575V14.5166H6.85781L11.1 18.5881C12.3844 19.6967 14.2734 19.4879 15.3187 18.1257L15.3281 18.1158L16.1672 18.8863C16.9125 19.5326 18.0141 19.4083 18.6188 18.6179L20.0906 16.699L20.3438 16.9177C20.9859 17.4695 21.9328 17.3701 22.4531 16.6841L22.8984 16.1024C23.4234 15.4164 23.325 14.4171 22.6828 13.8603Z" fill="#FF5001"/>
</svg>
