<svg width="164" height="49" viewBox="0 0 164 49" fill="none" xmlns="http://www.w3.org/2000/svg">
<path d="M163.858 22.0503V19.154H160.279V14.6512L160.159 14.6885L156.798 15.7221L156.731 15.7424V19.1541H151.426V17.2535C151.426 16.3685 151.623 15.6912 152.011 15.2396C152.396 14.7933 152.948 14.5664 153.65 14.5664C154.156 14.5664 154.679 14.6861 155.206 14.922L155.338 14.9813V11.931L155.276 11.9081C154.784 11.7306 154.116 11.6412 153.288 11.6412C152.244 11.6412 151.296 11.8695 150.469 12.322C149.641 12.7751 148.99 13.4219 148.534 14.2443C148.08 15.0657 147.849 16.0145 147.849 17.0644V19.154H145.357V22.0503H147.849V34.2522H151.426V22.0503H156.731V29.8044C156.731 32.9979 158.23 34.6163 161.186 34.6163C161.671 34.6163 162.183 34.5591 162.704 34.4471C163.236 34.332 163.598 34.2172 163.811 34.0945L163.858 34.0665V31.1433L163.712 31.24C163.518 31.37 163.276 31.4763 162.993 31.5553C162.708 31.6358 162.471 31.6761 162.286 31.6761C161.594 31.6761 161.082 31.4886 160.764 31.1185C160.442 30.745 160.279 30.092 160.279 29.1785V22.0503H163.858ZM137.369 31.6766C136.071 31.6766 135.047 31.2439 134.326 30.3915C133.6 29.5349 133.232 28.3135 133.232 26.7618C133.232 25.1608 133.6 23.9078 134.326 23.036C135.048 22.17 136.062 21.7304 137.34 21.7304C138.58 21.7304 139.568 22.1502 140.275 22.9788C140.986 23.8117 141.346 25.0547 141.346 26.6743C141.346 28.3139 141.007 29.5733 140.338 30.4157C139.674 31.2518 138.675 31.6766 137.369 31.6766V31.6766ZM137.528 18.7902C135.051 18.7902 133.084 19.5198 131.681 20.9585C130.279 22.3975 129.568 24.3888 129.568 26.8776C129.568 29.2416 130.262 31.143 131.631 32.5283C132.999 33.914 134.862 34.6159 137.166 34.6159C139.567 34.6159 141.495 33.8762 142.897 32.4175C144.299 30.9604 145.01 28.9879 145.01 26.5572C145.01 24.1563 144.343 22.2407 143.028 20.8647C141.712 19.488 139.862 18.7902 137.528 18.7902V18.7902ZM123.801 18.7902C122.116 18.7902 120.722 19.2234 119.658 20.0775C118.586 20.9367 118.043 22.0636 118.043 23.4271C118.043 24.1359 118.16 24.7656 118.391 25.2996C118.623 25.8354 118.983 26.3071 119.46 26.703C119.934 27.0957 120.665 27.5071 121.634 27.9256C122.449 28.2626 123.057 28.5476 123.443 28.7722C123.82 28.9924 124.088 29.2137 124.239 29.4292C124.386 29.6402 124.46 29.9289 124.46 30.2851C124.46 31.2995 123.704 31.793 122.149 31.793C121.572 31.793 120.915 31.6719 120.194 31.4333C119.478 31.1982 118.803 30.854 118.191 30.4127L118.043 30.3056V33.7671L118.097 33.7926C118.603 34.0274 119.241 34.2255 119.994 34.3813C120.744 34.5372 121.426 34.6166 122.019 34.6166C123.847 34.6166 125.32 34.1813 126.394 33.3221C127.475 32.457 128.023 31.3036 128.023 29.8928C128.023 28.8751 127.728 28.0024 127.147 27.2985C126.569 26.6004 125.567 25.9595 124.169 25.393C123.055 24.9437 122.342 24.5707 122.048 24.2844C121.764 24.0079 121.62 23.6167 121.62 23.1214C121.62 22.6823 121.798 22.3306 122.163 22.0457C122.531 21.7594 123.043 21.6138 123.685 21.6138C124.281 21.6138 124.891 21.7084 125.497 21.8939C126.103 22.0793 126.636 22.3277 127.08 22.6315L127.226 22.7319V19.4484L127.17 19.4242C126.76 19.2475 126.219 19.0963 125.563 18.9736C124.909 18.8517 124.317 18.7902 123.801 18.7902V18.7902ZM108.718 31.6766C107.42 31.6766 106.396 31.2439 105.675 30.3915C104.949 29.5349 104.581 28.3139 104.581 26.7618C104.581 25.1608 104.949 23.9078 105.675 23.036C106.397 22.17 107.41 21.7304 108.689 21.7304C109.929 21.7304 110.916 22.1502 111.624 22.9788C112.335 23.8117 112.695 25.0547 112.695 26.6743C112.695 28.3139 112.356 29.5733 111.687 30.4157C111.023 31.2518 110.024 31.6766 108.718 31.6766V31.6766ZM108.877 18.7902C106.4 18.7902 104.432 19.5198 103.03 20.9585C101.628 22.3975 100.917 24.3888 100.917 26.8776C100.917 29.2425 101.611 31.143 102.98 32.5283C104.348 33.914 106.211 34.6159 108.515 34.6159C110.916 34.6159 112.844 33.8762 114.247 32.4175C115.648 30.9604 116.359 28.9879 116.359 26.5572C116.359 24.1563 115.692 22.2407 114.377 20.8647C113.061 19.488 111.21 18.7902 108.877 18.7902V18.7902ZM95.4871 21.7687V19.154H91.9536V34.2519H95.4871V26.5287C95.4871 25.2155 95.7833 24.1366 96.3679 23.3217C96.945 22.5165 97.7141 22.1085 98.6531 22.1085C98.9714 22.1085 99.3287 22.1612 99.7156 22.2656C100.099 22.3693 100.376 22.4819 100.54 22.6005L100.688 22.7086V19.1282L100.631 19.1035C100.302 18.9629 99.8362 18.892 99.2472 18.892C98.3592 18.892 97.5646 19.1788 96.884 19.7434C96.2866 20.2397 95.8548 20.9201 95.5246 21.7687H95.4871ZM85.6258 18.7902C84.0047 18.7902 82.5588 19.1396 81.3289 19.8283C80.0965 20.5187 79.1434 21.5042 78.4949 22.7574C77.8493 24.0075 77.5215 25.4678 77.5215 27.0964C77.5215 28.5229 77.8393 29.832 78.4675 30.9858C79.096 32.1414 79.9856 33.0456 81.1116 33.6726C82.2361 34.2989 83.5357 34.6164 84.9746 34.6164C86.6538 34.6164 88.0876 34.279 89.2371 33.6135L89.2835 33.5868V30.333L89.135 30.442C88.6143 30.8233 88.0324 31.1275 87.4063 31.3468C86.7818 31.5658 86.2124 31.6766 85.7131 31.6766C84.3266 31.6766 83.2136 31.2405 82.4057 30.3808C81.596 29.52 81.1855 28.3113 81.1855 26.7903C81.1855 25.2598 81.6136 24.02 82.4573 23.1052C83.2985 22.1931 84.4136 21.7304 85.7714 21.7304C86.9328 21.7304 88.0646 22.1257 89.1353 22.9063L89.2835 23.0145V19.5862L89.2356 19.5591C88.8327 19.3324 88.2832 19.1452 87.6009 19.0032C86.9216 18.8616 86.2571 18.7902 85.6258 18.7902V18.7902ZM75.088 19.1541H71.5545V34.2519H75.088V19.1541V19.1541ZM73.3574 12.7224C72.7758 12.7224 72.2686 12.9213 71.8518 13.3157C71.4334 13.7111 71.2211 14.2089 71.2211 14.7965C71.2211 15.3748 71.4308 15.8636 71.8453 16.2485C72.2571 16.6323 72.766 16.8268 73.3575 16.8268C73.9489 16.8268 74.4596 16.6323 74.8763 16.2491C75.2958 15.8636 75.5085 15.375 75.5085 14.7965C75.5085 14.2295 75.3015 13.7367 74.8936 13.3316C74.4861 12.9272 73.969 12.7224 73.3574 12.7224ZM64.5411 18.0402V34.2519H68.1472V13.1845H63.1562L56.8124 28.8328L50.6561 13.1845H45.4619V34.2517H48.8507V18.0386H48.967L55.4679 34.2519H58.0253L64.4248 18.0402H64.5411V18.0402Z" fill="white"/>
<path d="M16.6225 22.8518H0V6.14465H16.6225V22.8518Z" fill="#F1511B"/>
<path d="M34.9757 22.8518H18.3535V6.14465H34.9757V22.8518Z" fill="#80CC28"/>
<path d="M16.622 41.305H0V24.598H16.622V41.305Z" fill="#00ADEF"/>
<path d="M34.9757 41.305H18.3535V24.598H34.9757V41.305Z" fill="#FBBC09"/>
</svg>
