<svg width="31" height="31" viewBox="0 0 31 31" fill="none" xmlns="http://www.w3.org/2000/svg">
<path d="M15.5 18.0835C15.134 18.0835 14.8273 17.9597 14.5797 17.7121C14.3321 17.4646 14.2083 17.1578 14.2083 16.7918C14.2083 16.4259 14.3321 16.1191 14.5797 15.8715C14.8273 15.6239 15.134 15.5002 15.5 15.5002C15.866 15.5002 16.1727 15.6239 16.4203 15.8715C16.6679 16.1191 16.7917 16.4259 16.7917 16.7918C16.7917 17.1578 16.6679 17.4646 16.4203 17.7121C16.1727 17.9597 15.866 18.0835 15.5 18.0835ZM10.3333 18.0835C9.96736 18.0835 9.66059 17.9597 9.41302 17.7121C9.16545 17.4646 9.04167 17.1578 9.04167 16.7918C9.04167 16.4259 9.16545 16.1191 9.41302 15.8715C9.66059 15.6239 9.96736 15.5002 10.3333 15.5002C10.6993 15.5002 11.0061 15.6239 11.2536 15.8715C11.5012 16.1191 11.625 16.4259 11.625 16.7918C11.625 17.1578 11.5012 17.4646 11.2536 17.7121C11.0061 17.9597 10.6993 18.0835 10.3333 18.0835ZM20.6667 18.0835C20.3007 18.0835 19.9939 17.9597 19.7464 17.7121C19.4988 17.4646 19.375 17.1578 19.375 16.7918C19.375 16.4259 19.4988 16.1191 19.7464 15.8715C19.9939 15.6239 20.3007 15.5002 20.6667 15.5002C21.0326 15.5002 21.3394 15.6239 21.587 15.8715C21.8345 16.1191 21.9583 16.4259 21.9583 16.7918C21.9583 17.1578 21.8345 17.4646 21.587 17.7121C21.3394 17.9597 21.0326 18.0835 20.6667 18.0835ZM15.5 23.2502C15.134 23.2502 14.8273 23.1264 14.5797 22.8788C14.3321 22.6312 14.2083 22.3245 14.2083 21.9585C14.2083 21.5925 14.3321 21.2858 14.5797 21.0382C14.8273 20.7906 15.134 20.6668 15.5 20.6668C15.866 20.6668 16.1727 20.7906 16.4203 21.0382C16.6679 21.2858 16.7917 21.5925 16.7917 21.9585C16.7917 22.3245 16.6679 22.6312 16.4203 22.8788C16.1727 23.1264 15.866 23.2502 15.5 23.2502ZM10.3333 23.2502C9.96736 23.2502 9.66059 23.1264 9.41302 22.8788C9.16545 22.6312 9.04167 22.3245 9.04167 21.9585C9.04167 21.5925 9.16545 21.2858 9.41302 21.0382C9.66059 20.7906 9.96736 20.6668 10.3333 20.6668C10.6993 20.6668 11.0061 20.7906 11.2536 21.0382C11.5012 21.2858 11.625 21.5925 11.625 21.9585C11.625 22.3245 11.5012 22.6312 11.2536 22.8788C11.0061 23.1264 10.6993 23.2502 10.3333 23.2502ZM20.6667 23.2502C20.3007 23.2502 19.9939 23.1264 19.7464 22.8788C19.4988 22.6312 19.375 22.3245 19.375 21.9585C19.375 21.5925 19.4988 21.2858 19.7464 21.0382C19.9939 20.7906 20.3007 20.6668 20.6667 20.6668C21.0326 20.6668 21.3394 20.7906 21.587 21.0382C21.8345 21.2858 21.9583 21.5925 21.9583 21.9585C21.9583 22.3245 21.8345 22.6312 21.587 22.8788C21.3394 23.1264 21.0326 23.2502 20.6667 23.2502ZM6.45833 28.4168C5.74792 28.4168 5.13976 28.1639 4.63385 27.658C4.12795 27.1521 3.875 26.5439 3.875 25.8335V7.75016C3.875 7.03975 4.12795 6.43159 4.63385 5.92568C5.13976 5.41978 5.74792 5.16683 6.45833 5.16683H7.75V2.5835H10.3333V5.16683H20.6667V2.5835H23.25V5.16683H24.5417C25.2521 5.16683 25.8602 5.41978 26.3661 5.92568C26.872 6.43159 27.125 7.03975 27.125 7.75016V25.8335C27.125 26.5439 26.872 27.1521 26.3661 27.658C25.8602 28.1639 25.2521 28.4168 24.5417 28.4168H6.45833ZM6.45833 25.8335H24.5417V12.9168H6.45833V25.8335Z" fill="#FF5001"/>
</svg>
