<svg width="24" height="24" viewBox="0 0 24 24" fill="none" xmlns="http://www.w3.org/2000/svg">
<path d="M9.86 2C9.10148 2 8.37403 2.30132 7.83767 2.83767C7.30132 3.37403 7 4.10148 7 4.86V6.54H11.29C11.68 6.54 12 7.11 12 7.5H4.86C4.10148 7.5 3.37403 7.80132 2.83767 8.33767C2.30132 8.87403 2 9.60148 2 10.36V14.141C2 14.8995 2.30132 15.627 2.83767 16.1633C3.37403 16.6997 4.10148 17.001 4.86 17.001H6.04V14.321C6.03868 13.9459 6.11143 13.5742 6.25407 13.2273C6.3967 12.8803 6.60642 12.565 6.8712 12.2993C7.13598 12.0336 7.45061 11.8227 7.79704 11.6789C8.14347 11.535 8.51489 11.461 8.89 11.461H14.14C15.72 11.461 17 10.19 17 8.61V4.86C17 4.10148 16.6987 3.37403 16.1623 2.83767C15.626 2.30132 14.8985 2 14.14 2H9.86ZM9.14 3.61C9.54 3.61 9.86 3.73 9.86 4.32C9.86 4.91 9.54 5.211 9.14 5.211C8.75 5.211 8.43 4.911 8.43 4.321C8.43 3.731 8.75 3.61 9.14 3.61Z" fill="#0288D1"/>
<path d="M17.959 7V9.68C17.9602 10.055 17.8873 10.4266 17.7446 10.7734C17.602 11.1202 17.3922 11.4355 17.1274 11.7011C16.8627 11.9667 16.5481 12.1774 16.2017 12.3212C15.8554 12.465 15.484 12.539 15.109 12.539H9.86C9.48489 12.5377 9.11321 12.6104 8.76628 12.7531C8.41935 12.8957 8.10399 13.1054 7.83828 13.3702C7.57257 13.635 7.36175 13.9496 7.2179 14.296C7.07405 14.6425 7 15.0139 7 15.389V19.139C7 19.8975 7.30132 20.625 7.83767 21.1613C8.37403 21.6977 9.10148 21.999 9.86 21.999H14.14C14.8983 21.999 15.6256 21.6978 16.162 21.1617C16.6983 20.6255 16.9997 19.8983 17 19.14V17.46H12.709C12.319 17.46 12 16.89 12 16.5H19.14C19.8985 16.5 20.626 16.1987 21.1623 15.6623C21.6987 15.126 22 14.3985 22 13.64V9.86C22 9.10148 21.6987 8.37403 21.1623 7.83767C20.626 7.30132 19.8985 7 19.14 7H17.959ZM8.32 11.513L8.316 11.517L8.354 11.513H8.32ZM14.86 18.789C15.25 18.789 15.57 19.089 15.57 19.679C15.57 19.7722 15.5516 19.8646 15.516 19.9507C15.4803 20.0368 15.428 20.1151 15.362 20.181C15.2961 20.247 15.2178 20.2993 15.1317 20.335C15.0456 20.3706 14.9532 20.389 14.86 20.389C14.46 20.389 14.14 20.269 14.14 19.679C14.14 19.089 14.46 18.789 14.86 18.789Z" fill="#FDD835"/>
</svg>
