<svg width="31" height="31" viewBox="0 0 31 31" fill="none" xmlns="http://www.w3.org/2000/svg">
<path d="M15.5 18.083C15.134 18.083 14.8273 17.9592 14.5797 17.7117C14.3321 17.4641 14.2083 17.1573 14.2083 16.7913C14.2083 16.4254 14.3321 16.1186 14.5797 15.871C14.8273 15.6235 15.134 15.4997 15.5 15.4997C15.866 15.4997 16.1727 15.6235 16.4203 15.871C16.6679 16.1186 16.7917 16.4254 16.7917 16.7913C16.7917 17.1573 16.6679 17.4641 16.4203 17.7117C16.1727 17.9592 15.866 18.083 15.5 18.083ZM10.3333 18.083C9.96736 18.083 9.66059 17.9592 9.41302 17.7117C9.16545 17.4641 9.04167 17.1573 9.04167 16.7913C9.04167 16.4254 9.16545 16.1186 9.41302 15.871C9.66059 15.6235 9.96736 15.4997 10.3333 15.4997C10.6993 15.4997 11.0061 15.6235 11.2536 15.871C11.5012 16.1186 11.625 16.4254 11.625 16.7913C11.625 17.1573 11.5012 17.4641 11.2536 17.7117C11.0061 17.9592 10.6993 18.083 10.3333 18.083ZM20.6667 18.083C20.3007 18.083 19.9939 17.9592 19.7464 17.7117C19.4988 17.4641 19.375 17.1573 19.375 16.7913C19.375 16.4254 19.4988 16.1186 19.7464 15.871C19.9939 15.6235 20.3007 15.4997 20.6667 15.4997C21.0326 15.4997 21.3394 15.6235 21.587 15.871C21.8345 16.1186 21.9583 16.4254 21.9583 16.7913C21.9583 17.1573 21.8345 17.4641 21.587 17.7117C21.3394 17.9592 21.0326 18.083 20.6667 18.083ZM15.5 23.2497C15.134 23.2497 14.8273 23.1259 14.5797 22.8783C14.3321 22.6308 14.2083 22.324 14.2083 21.958C14.2083 21.592 14.3321 21.2853 14.5797 21.0377C14.8273 20.7901 15.134 20.6663 15.5 20.6663C15.866 20.6663 16.1727 20.7901 16.4203 21.0377C16.6679 21.2853 16.7917 21.592 16.7917 21.958C16.7917 22.324 16.6679 22.6308 16.4203 22.8783C16.1727 23.1259 15.866 23.2497 15.5 23.2497ZM10.3333 23.2497C9.96736 23.2497 9.66059 23.1259 9.41302 22.8783C9.16545 22.6308 9.04167 22.324 9.04167 21.958C9.04167 21.592 9.16545 21.2853 9.41302 21.0377C9.66059 20.7901 9.96736 20.6663 10.3333 20.6663C10.6993 20.6663 11.0061 20.7901 11.2536 21.0377C11.5012 21.2853 11.625 21.592 11.625 21.958C11.625 22.324 11.5012 22.6308 11.2536 22.8783C11.0061 23.1259 10.6993 23.2497 10.3333 23.2497ZM20.6667 23.2497C20.3007 23.2497 19.9939 23.1259 19.7464 22.8783C19.4988 22.6308 19.375 22.324 19.375 21.958C19.375 21.592 19.4988 21.2853 19.7464 21.0377C19.9939 20.7901 20.3007 20.6663 20.6667 20.6663C21.0326 20.6663 21.3394 20.7901 21.587 21.0377C21.8345 21.2853 21.9583 21.592 21.9583 21.958C21.9583 22.324 21.8345 22.6308 21.587 22.8783C21.3394 23.1259 21.0326 23.2497 20.6667 23.2497ZM6.45833 28.4163C5.74792 28.4163 5.13976 28.1634 4.63385 27.6575C4.12795 27.1516 3.875 26.5434 3.875 25.833V7.74967C3.875 7.03926 4.12795 6.4311 4.63385 5.9252C5.13976 5.41929 5.74792 5.16634 6.45833 5.16634H7.75V2.58301H10.3333V5.16634H20.6667V2.58301H23.25V5.16634H24.5417C25.2521 5.16634 25.8602 5.41929 26.3661 5.9252C26.872 6.4311 27.125 7.03926 27.125 7.74967V25.833C27.125 26.5434 26.872 27.1516 26.3661 27.6575C25.8602 28.1634 25.2521 28.4163 24.5417 28.4163H6.45833ZM6.45833 25.833H24.5417V12.9163H6.45833V25.833Z" fill="#FF5001"/>
</svg>
