<svg width="45" height="45" viewBox="0 0 45 45" fill="none" xmlns="http://www.w3.org/2000/svg">
<g filter="url(#filter0_i_3006_19672)">
<path d="M37.2276 43.8203C40.2522 42.6517 42.6434 40.2605 43.812 37.2358C44.3652 35.8031 44.7524 34.1684 44.8576 31.7772C44.8824 31.217 44.9018 30.7468 44.9198 30.2752V14.2988C44.9073 13.9655 44.8935 13.6184 44.8755 13.2284C44.7704 10.8372 44.3832 9.19418 43.83 7.76969C43.2588 6.25807 42.3792 4.90411 41.2286 3.77974C40.1028 2.636 38.7406 1.74811 37.2455 1.18661C35.8127 0.633416 34.178 0.246176 31.7868 0.141069C29.3776 0.0262797 28.6129 0 22.5041 0C16.3954 0 15.6293 0.0262787 13.2298 0.131387C10.8386 0.236494 9.19555 0.623734 7.77106 1.17693C6.25945 1.74811 4.90549 2.6277 3.77973 3.77974C2.63738 4.9055 1.74949 6.26775 1.18661 7.76139C0.633411 9.19418 0.246172 10.8289 0.141064 13.2201C0.0262755 15.6293 0 16.3941 0 22.5041C0 28.6142 0.0262744 29.379 0.131382 31.7785C0.23649 34.1697 0.623731 35.8141 1.17831 37.2372C1.74949 38.7488 2.63738 40.1028 3.77973 41.2286C4.90549 42.3709 6.26775 43.2602 7.76277 43.8217C9.19555 44.3749 10.8303 44.7621 13.2215 44.8672C15.621 44.9737 16.3858 45 22.4959 45C28.6059 45 29.3694 44.9737 31.7702 44.8672C34.1614 44.7621 35.8044 44.3749 37.2289 43.8217L37.2276 43.8203ZM22.5124 40.9547C16.5075 40.9547 15.7869 40.9285 13.422 40.8233C11.2244 40.7265 10.0378 40.3573 9.24673 40.0503C8.27171 39.6893 7.38383 39.1181 6.6619 38.3713C5.91508 37.6411 5.34252 36.7629 4.98294 35.7865C4.67592 34.9954 4.30665 33.7991 4.20984 31.6112C4.10474 29.238 4.07846 28.5257 4.07846 22.5207C4.07846 16.5158 4.10474 15.7952 4.20984 13.4317C4.30665 11.2341 4.67592 10.0475 4.98294 9.25641C5.34391 8.28001 5.91508 7.39213 6.67158 6.67159C7.40042 5.92477 8.28001 5.35359 9.25502 4.99262C10.0461 4.6856 11.2424 4.31634 13.4303 4.21953C15.8035 4.11442 16.5158 4.08815 22.5194 4.08815C28.523 4.08815 29.2449 4.11442 31.6098 4.21953C33.8074 4.31634 34.994 4.6856 35.7851 4.99262C36.7601 5.35359 37.648 5.92477 38.3685 6.67159C39.1153 7.40181 39.6879 8.28001 40.0475 9.25641C40.3545 10.0475 40.7238 11.2424 40.8206 13.4317C40.9257 15.8049 40.952 16.5172 40.952 22.5207C40.952 28.5243 40.9257 29.2283 40.8206 31.6015C40.7238 33.7991 40.3545 34.9857 40.0475 35.7768C39.291 37.7379 37.7351 39.2938 35.7754 40.0489C34.9843 40.3559 33.7894 40.7252 31.6001 40.822C29.2269 40.9271 28.5147 40.9533 22.5111 40.9533L22.5124 40.9547Z" fill="white"/>
<path d="M22.5043 10.9424C16.1218 10.9424 10.9438 16.1203 10.9438 22.5029C10.9438 28.8854 16.1218 34.0633 22.5043 34.0633C28.8869 34.0633 34.0634 28.8854 34.0634 22.5029C34.0634 16.1203 28.8855 10.9424 22.5043 10.9424V10.9424ZM22.5043 30.0001C18.3636 30.0001 15.0057 26.6422 15.0057 22.5015C15.0057 18.3608 18.3636 15.0029 22.5043 15.0029C26.645 15.0029 30.003 18.3608 30.003 22.5015C30.003 26.6422 26.645 30.0001 22.5043 30.0001Z" fill="white"/>
<path d="M37.2191 10.4858C37.2191 8.99495 36.0104 7.7876 34.5195 7.7876C33.0286 7.7876 31.8213 8.99634 31.8213 10.4858C31.8213 11.9753 33.03 13.1841 34.5195 13.1841C36.009 13.1841 37.2191 11.9767 37.2191 10.4858Z" fill="white"/>
</g>
<defs>
<filter id="filter0_i_3006_19672" x="0" y="0" width="44.9199" height="45.5" filterUnits="userSpaceOnUse" color-interpolation-filters="sRGB">
<feFlood flood-opacity="0" result="BackgroundImageFix"/>
<feBlend mode="normal" in="SourceGraphic" in2="BackgroundImageFix" result="shape"/>
<feColorMatrix in="SourceAlpha" type="matrix" values="0 0 0 0 0 0 0 0 0 0 0 0 0 0 0 0 0 0 127 0" result="hardAlpha"/>
<feOffset dy="0.5"/>
<feGaussianBlur stdDeviation="1.25"/>
<feComposite in2="hardAlpha" operator="arithmetic" k2="-1" k3="1"/>
<feColorMatrix type="matrix" values="0 0 0 0 0 0 0 0 0 0 0 0 0 0 0 0 0 0 0.1 0"/>
<feBlend mode="normal" in2="shape" result="effect1_innerShadow_3006_19672"/>
</filter>
</defs>
</svg>
