<svg width="24" height="24" viewBox="0 0 24 24" fill="none" xmlns="http://www.w3.org/2000/svg">
<path d="M6.42158 11.442C8.21276 12.0709 10.1021 12.3739 12.0001 12.3368C13.8981 12.3737 15.7875 12.0704 17.5786 11.4413C18.9766 10.896 19.4723 10.29 19.4723 9.94127V7.27502C18.9834 7.6021 18.4591 7.87282 17.9093 8.08202C16.0144 8.76044 14.0125 9.09124 12.0001 9.05852C9.98783 9.09009 7.98628 8.75984 6.09083 8.08352C5.54074 7.87444 5.01634 7.60318 4.52783 7.27502V9.93752C4.52783 10.293 5.02508 10.896 6.42158 11.442ZM6.42158 16.4708C7.05427 16.7121 7.70672 16.8981 8.37158 17.0265C9.56718 17.2573 10.7824 17.3711 12.0001 17.3663C13.2177 17.3714 14.433 17.2578 15.6286 17.0273C16.2934 16.8988 16.9459 16.7129 17.5786 16.4715C18.9766 15.9263 19.4723 15.3203 19.4723 14.9715V12.429C19.0683 12.6722 18.6437 12.8792 18.2033 13.0478C16.2126 13.7524 14.1115 14.0936 12.0001 14.055C9.88846 14.0924 7.78731 13.75 5.79683 13.044C5.35693 12.8744 4.93237 12.6674 4.52783 12.4253V14.97C4.52783 15.3195 5.02508 15.9233 6.42158 16.4708ZM12.0001 22.5C16.1251 22.5 19.4723 21.192 19.4723 19.5795V17.4518C19.1048 17.6733 18.7198 17.8645 18.3211 18.0233L18.2033 18.0705C16.213 18.7772 14.1118 19.1204 12.0001 19.0838C9.8882 19.1221 7.78676 18.7788 5.79683 18.0705L5.67908 18.0233C5.2804 17.8645 4.89537 17.6733 4.52783 17.4518V19.5795C4.52783 21.192 7.87508 22.5 12.0001 22.5Z" fill="#FFDA44"/>
<path d="M12.0001 7.341C16.1269 7.341 19.4723 6.03345 19.4723 4.4205C19.4723 2.80755 16.1269 1.5 12.0001 1.5C7.87327 1.5 4.52783 2.80755 4.52783 4.4205C4.52783 6.03345 7.87327 7.341 12.0001 7.341Z" fill="#FFDA44"/>
</svg>
