<svg width="24" height="292" viewBox="0 0 24 292" fill="none" xmlns="http://www.w3.org/2000/svg">
<path d="M24 10.6324C24 4.76723 18.624 0.0071106 12 0.0071106C5.376 0.0071106 0 4.76723 0 10.6324C0 15.775 4.128 20.057 9.6 21.0451V13.8199H7.2V10.6324H9.6V7.97605C9.6 5.92538 11.484 4.25721 13.8 4.25721H16.8V7.44479H14.4C13.74 7.44479 13.2 7.92293 13.2 8.50732V10.6324H16.8V13.8199H13.2V21.2045C19.26 20.6732 24 16.1469 24 10.6324Z" fill="#FF5001"/>
<path d="M13.2336 69.7819C14.5835 69.785 15.2687 69.7914 15.8603 69.8062L16.0931 69.8137C16.3619 69.8221 16.627 69.8327 16.9474 69.8455C18.2242 69.8984 19.0953 70.0765 19.8597 70.3383C20.6516 70.6075 21.3188 70.9721 21.986 71.5603C22.5964 72.0899 23.0685 72.7308 23.3695 73.4383C23.6659 74.1134 23.8675 74.8829 23.9275 76.0116C23.9419 76.2935 23.9539 76.5278 23.9635 76.7662L23.9707 76.9718C23.9887 77.4933 23.9959 78.0985 23.9983 79.2908L23.9995 80.0814V81.4698C24.0024 82.2429 23.9932 83.0159 23.9719 83.7888L23.9647 83.9944C23.9551 84.2328 23.9431 84.4671 23.9287 84.749C23.8687 85.8777 23.6647 86.6461 23.3695 87.3223C23.0685 88.0297 22.5964 88.6707 21.986 89.2003C21.3863 89.7395 20.6607 90.1565 19.8597 90.4223C19.0953 90.6841 18.2242 90.8622 16.9474 90.9151L16.0931 90.9469L15.8603 90.9533C15.2687 90.9681 14.5835 90.9756 13.2336 90.9777L12.3385 90.9787H10.7677C9.8921 90.9815 9.01646 90.9733 8.14107 90.9544L7.90828 90.948C7.62343 90.9385 7.33864 90.9275 7.05393 90.9151C5.77719 90.8622 4.90604 90.6841 4.14047 90.4223C3.33991 90.1564 2.61468 89.7393 2.01538 89.2003C1.40455 88.6708 0.931966 88.0298 0.630651 87.3223C0.334266 86.6472 0.132676 85.8777 0.0726788 84.749L0.0366807 83.9944L0.0306811 83.7888C0.00856149 83.0159 -0.00143908 82.2429 0.000682522 81.4698V79.2908C-0.00263878 78.5177 0.00616171 77.7447 0.0270813 76.9718L0.0354808 76.7662C0.0450803 76.5278 0.0570797 76.2935 0.071479 76.0116C0.131476 74.8829 0.333066 74.1145 0.629451 73.4383C0.931469 72.7306 1.40488 72.0896 2.01658 71.5603C2.61553 71.0214 3.34034 70.6044 4.14047 70.3383C4.90604 70.0765 5.77599 69.8984 7.05393 69.8455C7.37311 69.8327 7.6395 69.8221 7.90828 69.8137L8.14107 69.8073C9.01606 69.7885 9.8913 69.7803 10.7665 69.7829L13.2336 69.7819ZM12.0001 75.0811C10.4089 75.0811 8.88281 75.6394 7.75765 76.6332C6.63249 77.627 6.00038 78.9749 6.00038 80.3803C6.00038 81.7857 6.63249 83.1336 7.75765 84.1274C8.88281 85.1212 10.4089 85.6795 12.0001 85.6795C13.5913 85.6795 15.1173 85.1212 16.2425 84.1274C17.3677 83.1336 17.9998 81.7857 17.9998 80.3803C17.9998 78.9749 17.3677 77.627 16.2425 76.6332C15.1173 75.6394 13.5913 75.0811 12.0001 75.0811ZM12.0001 77.2008C12.4728 77.2007 12.9409 77.2829 13.3777 77.4426C13.8145 77.6023 14.2114 77.8365 14.5457 78.1317C14.88 78.4269 15.1453 78.7773 15.3262 79.1631C15.5072 79.5488 15.6004 79.9622 15.6005 80.3798C15.6006 80.7973 15.5075 81.2108 15.3267 81.5966C15.1459 81.9823 14.8808 82.3329 14.5466 82.6282C14.2123 82.9235 13.8155 83.1577 13.3788 83.3176C12.9421 83.4774 12.474 83.5598 12.0013 83.5598C11.0465 83.5598 10.1309 83.2248 9.45582 82.6286C8.78072 82.0323 8.40146 81.2236 8.40146 80.3803C8.40146 79.537 8.78072 78.7283 9.45582 78.132C10.1309 77.5358 11.0465 77.2008 12.0013 77.2008M18.301 73.4913C17.9032 73.4913 17.5216 73.6309 17.2404 73.8793C16.9591 74.1278 16.801 74.4648 16.801 74.8161C16.801 75.1675 16.9591 75.5044 17.2404 75.7529C17.5216 76.0013 17.9032 76.1409 18.301 76.1409C18.6988 76.1409 19.0803 76.0013 19.3616 75.7529C19.6429 75.5044 19.8009 75.1675 19.8009 74.8161C19.8009 74.4648 19.6429 74.1278 19.3616 73.8793C19.0803 73.6309 18.6988 73.4913 18.301 73.4913Z" fill="#FF5001"/>
<path d="M9.6 149.651L15.828 146.622L9.6 143.594V149.651ZM23.472 141.747C23.628 142.221 23.736 142.857 23.808 143.665C23.892 144.472 23.928 145.169 23.928 145.774L24 146.622C24 148.833 23.808 150.458 23.472 151.498C23.172 152.406 22.476 152.992 21.396 153.244C20.832 153.375 19.8 153.466 18.216 153.527C16.656 153.597 15.228 153.628 13.908 153.628L12 153.688C6.972 153.688 3.84 153.527 2.604 153.244C1.524 152.992 0.828 152.406 0.528 151.498C0.372 151.023 0.264 150.387 0.192 149.58C0.108 148.772 0.0719999 148.076 0.0719999 147.47L0 146.622C0 144.412 0.192 142.787 0.528 141.747C0.828 140.839 1.524 140.253 2.604 140.001C3.168 139.869 4.2 139.779 5.784 139.718C7.344 139.647 8.772 139.617 10.092 139.617L12 139.557C17.028 139.557 20.16 139.718 21.396 140.001C22.476 140.253 23.172 140.839 23.472 141.747Z" fill="#FF5001"/>
<path d="M21.3333 202.266C22.0406 202.266 22.7189 202.514 23.219 202.955C23.719 203.397 24 203.996 24 204.621V221.108C24 221.732 23.719 222.331 23.219 222.773C22.7189 223.215 22.0406 223.463 21.3333 223.463H2.66667C1.95942 223.463 1.28115 223.215 0.781048 222.773C0.280951 222.331 0 221.732 0 221.108V204.621C0 203.996 0.280951 203.397 0.781048 202.955C1.28115 202.514 1.95942 202.266 2.66667 202.266H21.3333ZM20.6667 220.519V214.277C20.6667 213.259 20.2087 212.283 19.3936 211.563C18.5784 210.843 17.4728 210.438 16.32 210.438C15.1867 210.438 13.8667 211.051 13.2267 211.969V210.662H9.50667V220.519H13.2267V214.713C13.2267 213.806 14.0533 213.064 15.08 213.064C15.5751 213.064 16.0499 213.238 16.3999 213.547C16.75 213.857 16.9467 214.276 16.9467 214.713V220.519H20.6667ZM5.17333 208.813C5.76742 208.813 6.33717 208.605 6.75725 208.234C7.17733 207.863 7.41333 207.359 7.41333 206.835C7.41333 205.74 6.41333 204.845 5.17333 204.845C4.57571 204.845 4.00257 205.054 3.57999 205.427C3.1574 205.801 2.92 206.307 2.92 206.835C2.92 207.93 3.93333 208.813 5.17333 208.813ZM7.02667 220.519V210.662H3.33333V220.519H7.02667Z" fill="#FF5001"/>
<path fill-rule="evenodd" clip-rule="evenodd" d="M12 272.04C5.3724 272.04 0 276.391 0 281.758C0 283.594 0.63 285.314 1.7256 286.78L0.6552 289.726C0.593742 289.895 0.589698 290.074 0.643493 290.245C0.697289 290.416 0.806937 290.572 0.960911 290.697C1.11489 290.822 1.3075 290.91 1.5185 290.954C1.7295 290.997 1.9511 290.994 2.16 290.944L5.7984 290.078C7.66889 290.994 9.81389 291.477 12 291.475C18.6276 291.475 24 287.125 24 281.758C24 276.391 18.6276 272.04 12 272.04ZM9.2856 283.957C11.7132 285.922 14.0304 286.181 14.8488 286.205C16.0932 286.242 17.3052 285.473 17.7768 284.58C17.8358 284.468 17.8572 284.346 17.8386 284.226C17.82 284.106 17.7623 283.992 17.6712 283.896C17.0136 283.216 16.1244 282.727 15.2556 282.242C15.0743 282.14 14.8513 282.099 14.6335 282.127C14.4158 282.156 14.2202 282.252 14.088 282.395L13.368 283.284C13.33 283.332 13.271 283.366 13.203 283.38C13.135 283.393 13.0632 283.386 13.002 283.358C12.5136 283.132 11.802 282.747 11.2908 282.333C10.7796 281.919 10.3332 281.369 10.0824 280.999C10.0521 280.952 10.0435 280.897 10.0582 280.845C10.073 280.793 10.11 280.748 10.1628 280.716L11.2716 280.049C11.4303 279.938 11.5328 279.783 11.5593 279.615C11.5859 279.446 11.5347 279.276 11.4156 279.136C10.878 278.498 10.2516 277.688 9.3432 277.151C9.22572 277.082 9.08842 277.04 8.94462 277.027C8.80082 277.014 8.65538 277.032 8.5224 277.078C7.4184 277.461 6.4632 278.442 6.5088 279.452C6.5388 280.114 6.8592 281.991 9.2856 283.957Z" fill="#FF5001"/>
</svg>
