<svg width="45" height="45" viewBox="0 0 45 45" fill="none" xmlns="http://www.w3.org/2000/svg">
<path d="M0 45L3.22578 33.0058C0.624269 28.3334 -0.202257 22.8812 0.897871 17.6495C1.998 12.4179 4.95099 7.75778 9.21495 4.52434C13.4789 1.2909 18.7679 -0.298978 24.1112 0.0464506C29.4546 0.391879 34.494 2.64944 38.3046 6.40488C42.1153 10.1603 44.4416 15.1617 44.8567 20.4913C45.2719 25.8209 43.7479 31.1212 40.5646 35.4196C37.3812 39.718 32.7519 42.7261 27.5263 43.892C22.3006 45.0579 16.8291 44.3034 12.1157 41.7669L0 45ZM12.6999 37.2786L13.4492 37.7223C16.8632 39.7425 20.8507 40.5785 24.7903 40.1C28.7299 39.6215 32.4003 37.8554 35.2296 35.0769C38.0588 32.2985 39.8879 28.6637 40.4319 24.739C40.9759 20.8143 40.2041 16.8202 38.237 13.3791C36.2698 9.93802 33.2177 7.24324 29.5563 5.7147C25.8948 4.18617 21.8298 3.90974 17.9946 4.9285C14.1594 5.94727 10.7694 8.20399 8.35304 11.347C5.93667 14.49 4.62958 18.3427 4.63547 22.3048C4.63226 25.59 5.54232 28.8116 7.26435 31.6111L7.73425 32.3845L5.93086 39.079L12.6999 37.2786Z" fill="white"/>
<path fill-rule="evenodd" clip-rule="evenodd" d="M30.8859 25.3845C30.4466 25.0308 29.9323 24.7819 29.3821 24.6566C28.8319 24.5314 28.2603 24.5332 27.7109 24.6618C26.8854 25.0042 26.352 26.2974 25.8186 26.944C25.7061 27.099 25.5409 27.2078 25.3538 27.2498C25.1668 27.2918 24.9708 27.2642 24.8026 27.1722C21.7805 25.9905 19.2473 23.8234 17.6145 21.023C17.4752 20.8482 17.4093 20.6264 17.4306 20.4041C17.4519 20.1818 17.5588 19.9764 17.7288 19.8312C18.3237 19.2432 18.7605 18.515 18.9988 17.7138C19.0517 16.8301 18.8489 15.9499 18.4146 15.178C18.0788 14.096 17.4398 13.1325 16.5731 12.4014C16.126 12.2006 15.6304 12.1333 15.1459 12.2076C14.6614 12.2818 14.2087 12.4944 13.8426 12.8198C13.2069 13.3673 12.7024 14.0502 12.3661 14.8182C12.0298 15.5862 11.8704 16.4197 11.8995 17.2574C11.9015 17.7278 11.9612 18.1962 12.0773 18.652C12.3722 19.7474 12.8257 20.7939 13.4235 21.7584C13.8548 22.4972 14.3253 23.2125 14.8332 23.9011C16.4836 26.163 18.5582 28.0834 20.9418 29.5559C22.138 30.3041 23.4164 30.9125 24.7518 31.369C26.1391 31.9967 27.6707 32.2377 29.1841 32.0663C30.0464 31.936 30.8634 31.5961 31.5632 31.0766C32.263 30.557 32.8241 29.8737 33.1973 29.0868C33.4165 28.6114 33.4831 28.0799 33.3878 27.5653C33.1592 26.5129 31.7495 25.8917 30.8859 25.3845Z" fill="white"/>
</svg>
