<svg width="29" height="29" viewBox="0 0 29 29" fill="none" xmlns="http://www.w3.org/2000/svg">
<g clip-path="url(#clip0_3006_19437)">
<path d="M26.2812 0.679792H2.71875C2.18413 0.674351 1.66919 0.881216 1.28692 1.255C0.904643 1.62878 0.68626 2.13894 0.679688 2.67354V26.3312C0.687449 26.865 0.906355 27.374 1.2885 27.7468C1.67064 28.1196 2.18491 28.3259 2.71875 28.3204H26.2812C26.8159 28.3247 27.3305 28.1171 27.7126 27.7431C28.0946 27.3691 28.3131 26.859 28.3203 26.3244V2.66675C28.3108 2.13371 28.0912 1.62598 27.7094 1.25391C27.3276 0.881851 26.8144 0.675528 26.2812 0.679792Z" fill="#0076B2"/>
<path d="M4.77156 11.0406H8.87461V24.2424H4.77156V11.0406ZM6.82422 4.47028C7.29482 4.47028 7.75485 4.60985 8.1461 4.87135C8.53736 5.13285 8.84227 5.50452 9.02226 5.93934C9.20225 6.37416 9.24922 6.85259 9.15725 7.31412C9.06527 7.77564 8.83848 8.19952 8.50556 8.53212C8.17263 8.86473 7.74854 9.09112 7.28693 9.18265C6.82532 9.27419 6.34693 9.22675 5.91228 9.04635C5.47763 8.86595 5.10625 8.56069 4.84513 8.16918C4.584 7.77768 4.44487 7.31752 4.44531 6.84692C4.44591 6.21638 4.69681 5.61188 5.14288 5.16624C5.58895 4.7206 6.19369 4.47028 6.82422 4.47028ZM11.4484 11.0406H15.3815V12.8531H15.4359C15.9841 11.8154 17.3209 10.7211 19.3169 10.7211C23.472 10.7121 24.2423 13.4467 24.2423 16.9924V24.2424H20.1393V17.8193C20.1393 16.29 20.1121 14.3212 18.0073 14.3212C15.9026 14.3212 15.5446 15.9887 15.5446 17.7197V24.2424H11.4484V11.0406Z" fill="white"/>
</g>
<defs>
<clipPath id="clip0_3006_19437">
<rect width="29" height="29" fill="white"/>
</clipPath>
</defs>
</svg>
