<svg width="27" height="41" viewBox="0 0 27 41" fill="none" xmlns="http://www.w3.org/2000/svg">
<g clip-path="url(#clip0_3006_20838)">
<path d="M13.5 40.05C19.299 40.05 24 37.6995 24 34.8C24 31.9006 19.299 29.55 13.5 29.55C7.70101 29.55 3 31.9006 3 34.8C3 37.6995 7.70101 40.05 13.5 40.05Z" fill="url(#paint0_radial_3006_20838)"/>
<path d="M27 13.5C27 19.07 20.25 27 14.75 34.5C14.02 35.5 12.98 35.5 12.25 34.5C6.75 27 0 19.22 0 13.5C0 6.04 6.04 0 13.5 0C20.96 0 27 6.04 27 13.5Z" fill="#3FB1CE"/>
<path opacity="0.25" d="M13.5 0C6.04 0 0 6.04 0 13.5C0 19.22 6.75 27 12.25 34.5C13 35.52 14.02 35.5 14.75 34.5C20.25 27 27 19.07 27 13.5C27 6.04 20.96 0 13.5 0ZM13.5 1C20.42 1 26 6.58 26 13.5C26 15.9 24.5 19.18 22.22 22.74C19.95 26.3 16.71 30.14 13.94 33.91C13.74 34.18 13.61 34.32 13.5 34.44C13.39 34.32 13.26 34.18 13.06 33.91C10.28 30.13 7.41 26.31 5.02 22.77C2.62 19.23 1 15.95 1 13.5C1 6.58 6.58 1 13.5 1Z" fill="black"/>
<path d="M13.5 19C16.5376 19 19 16.5376 19 13.5C19 10.4624 16.5376 8 13.5 8C10.4624 8 8 10.4624 8 13.5C8 16.5376 10.4624 19 13.5 19Z" fill="white"/>
</g>
<defs>
<radialGradient id="paint0_radial_3006_20838" cx="0" cy="0" r="1" gradientUnits="userSpaceOnUse" gradientTransform="translate(13.5 34.8) scale(10.5 5.25)">
<stop offset="0.1" stop-opacity="0.4"/>
<stop offset="1" stop-opacity="0.05"/>
</radialGradient>
<clipPath id="clip0_3006_20838">
<rect width="27" height="41" fill="white"/>
</clipPath>
</defs>
</svg>
