<svg width="452" height="216" viewBox="0 0 452 216" fill="none" xmlns="http://www.w3.org/2000/svg">
<g filter="url(#filter0_d_3006_18571)">
<path d="M0.5 6C0.5 2.68629 3.18629 0 6.5 0H445.5C448.814 0 451.5 2.68629 451.5 6V210C451.5 213.314 448.814 216 445.5 216H6.49999C3.18629 216 0.5 213.314 0.5 210V6Z" fill="white"/>
<path d="M6.5 0.5H445.5C448.538 0.5 451 2.96243 451 6V210C451 213.038 448.538 215.5 445.5 215.5H6.5C3.46243 215.5 1 213.038 1 210V6C1 2.96244 3.46244 0.5 6.5 0.5Z" stroke="#E3E3E3"/>
</g>
<defs>
<filter id="filter0_d_3006_18571" x="-3.5" y="0" width="459" height="224" filterUnits="userSpaceOnUse" color-interpolation-filters="sRGB">
<feFlood flood-opacity="0" result="BackgroundImageFix"/>
<feColorMatrix in="SourceAlpha" type="matrix" values="0 0 0 0 0 0 0 0 0 0 0 0 0 0 0 0 0 0 127 0" result="hardAlpha"/>
<feOffset dy="4"/>
<feGaussianBlur stdDeviation="2"/>
<feComposite in2="hardAlpha" operator="out"/>
<feColorMatrix type="matrix" values="0 0 0 0 0 0 0 0 0 0 0 0 0 0 0 0 0 0 0.25 0"/>
<feBlend mode="normal" in2="BackgroundImageFix" result="effect1_dropShadow_3006_18571"/>
<feBlend mode="normal" in="SourceGraphic" in2="effect1_dropShadow_3006_18571" result="shape"/>
</filter>
</defs>
</svg>
