<svg width="17" height="15" viewBox="0 0 17 15" fill="none" xmlns="http://www.w3.org/2000/svg">
<path d="M-0.661622 14.2502C-1.07575 14.6156 -1.11524 15.2475 -0.749838 15.6616C-0.384434 16.0757 0.247498 16.1152 0.661622 15.7498L-0.661622 14.2502ZM17.9981 0.0623783C18.0325 -0.488831 17.6136 -0.963602 17.0624 -0.998053L8.07991 -1.55946C7.5287 -1.59391 7.05392 -1.17499 7.01947 -0.623783C6.98502 -0.0725736 7.40394 0.402197 7.95515 0.436648L15.9396 0.935674L15.4405 8.92009C15.4061 9.4713 15.825 9.94608 16.3762 9.98053C16.9274 10.015 17.4022 9.59606 17.4366 9.04485L17.9981 0.0623783ZM0 15L0.661622 15.7498L17.6616 0.749838L17 0L16.3384 -0.749838L-0.661622 14.2502L0 15Z" fill="#FF6A01"/>
</svg>
