<svg width="22" height="32" viewBox="0 0 22 32" fill="none" xmlns="http://www.w3.org/2000/svg">
<path d="M11 0.5C13.7818 0.5 16.452 1.62519 18.4219 3.63086C20.3919 5.63681 21.5 8.35963 21.5 11.2002C21.5 13.2007 20.8419 15.4769 19.8232 17.792C18.8074 20.1008 17.4487 22.4126 16.083 24.4736C14.7184 26.533 13.353 28.3334 12.3281 29.6191C11.8159 30.2618 11.3888 30.7757 11.0908 31.1279C11.0594 31.1651 11.0285 31.1998 11 31.2334C10.9715 31.1998 10.9406 31.1651 10.9092 31.1279C10.6112 30.7757 10.1841 30.2618 9.67188 29.6191C8.64702 28.3334 7.28163 26.533 5.91699 24.4736C4.55128 22.4126 3.19264 20.1008 2.17676 17.792C1.15815 15.4769 0.500043 13.2007 0.5 11.2002C0.5 8.35963 1.60813 5.63681 3.57812 3.63086C5.54798 1.62519 8.21816 0.5 11 0.5ZM11 6.7002C9.82253 6.7002 8.69503 7.1766 7.86523 8.02148C7.03586 8.86604 6.57129 10.0097 6.57129 11.2002C6.57134 12.3907 7.03578 13.5344 7.86523 14.3789C8.64326 15.1711 9.68303 15.639 10.7803 15.6943L11 15.7002C11.5827 15.7002 12.1594 15.5832 12.6973 15.3564C13.2352 15.1296 13.724 14.7972 14.1348 14.3789C14.5456 13.9606 14.8709 13.4643 15.0928 12.9189C15.3145 12.3738 15.4287 11.7898 15.4287 11.2002C15.4287 10.0097 14.9641 8.86604 14.1348 8.02148C13.305 7.1766 12.1775 6.7002 11 6.7002Z" stroke="#FF5001"/>
</svg>
